solid OpenSCAD_Model
  facet normal 1 -0 0
    outer loop
      vertex 40 0 3
      vertex 40 20 0
      vertex 40 20 3
    endloop
  endfacet
  facet normal 1 0 0
    outer loop
      vertex 40 20 0
      vertex 40 0 3
      vertex 40 0 0
    endloop
  endfacet
  facet normal 0 0 1
    outer loop
      vertex 40 20 3
      vertex 32.65 10 3
      vertex 40 0 3
    endloop
  endfacet
  facet normal 0 0 1
    outer loop
      vertex 40 20 3
      vertex 32.5921 10.551 3
      vertex 32.65 10 3
    endloop
  endfacet
  facet normal 0 0 1
    outer loop
      vertex 40 20 3
      vertex 32.4209 11.0779 3
      vertex 32.5921 10.551 3
    endloop
  endfacet
  facet normal 0 0 1
    outer loop
      vertex 40 20 3
      vertex 32.1439 11.5576 3
      vertex 32.4209 11.0779 3
    endloop
  endfacet
  facet normal 0 0 1
    outer loop
      vertex 40 20 3
      vertex 31.7732 11.9693 3
      vertex 32.1439 11.5576 3
    endloop
  endfacet
  facet normal 0 0 1
    outer loop
      vertex 40 20 3
      vertex 31.325 12.295 3
      vertex 31.7732 11.9693 3
    endloop
  endfacet
  facet normal 0 0 1
    outer loop
      vertex 40 20 3
      vertex 30.8189 12.5203 3
      vertex 31.325 12.295 3
    endloop
  endfacet
  facet normal 0 0 1
    outer loop
      vertex 40 20 3
      vertex 30.277 12.6355 3
      vertex 30.8189 12.5203 3
    endloop
  endfacet
  facet normal 0 0 1
    outer loop
      vertex 40 20 3
      vertex 29.723 12.6355 3
      vertex 30.277 12.6355 3
    endloop
  endfacet
  facet normal 0 0 1
    outer loop
      vertex 40 20 3
      vertex 29.1811 12.5203 3
      vertex 29.723 12.6355 3
    endloop
  endfacet
  facet normal 0 0 1
    outer loop
      vertex 10.8189 12.5203 3
      vertex 29.1811 12.5203 3
      vertex 40 20 3
    endloop
  endfacet
  facet normal 0 0 1
    outer loop
      vertex 27.4079 10.551 3
      vertex 12.65 10 3
      vertex 27.35 10 3
    endloop
  endfacet
  facet normal 0 0 1
    outer loop
      vertex 12.5921 10.551 3
      vertex 27.4079 10.551 3
      vertex 27.5791 11.0779 3
    endloop
  endfacet
  facet normal 0 0 1
    outer loop
      vertex 12.4209 11.0779 3
      vertex 27.5791 11.0779 3
      vertex 27.8561 11.5576 3
    endloop
  endfacet
  facet normal 0 0 1
    outer loop
      vertex 12.1439 11.5576 3
      vertex 27.8561 11.5576 3
      vertex 28.2268 11.9693 3
    endloop
  endfacet
  facet normal 0 0 1
    outer loop
      vertex 11.7732 11.9693 3
      vertex 28.2268 11.9693 3
      vertex 28.675 12.295 3
    endloop
  endfacet
  facet normal 0 0 1
    outer loop
      vertex 29.1811 12.5203 3
      vertex 10.8189 12.5203 3
      vertex 28.675 12.295 3
    endloop
  endfacet
  facet normal 0 0 1
    outer loop
      vertex 27.4079 10.551 3
      vertex 12.5921 10.551 3
      vertex 12.65 10 3
    endloop
  endfacet
  facet normal 0 0 1
    outer loop
      vertex 27.5791 11.0779 3
      vertex 12.4209 11.0779 3
      vertex 12.5921 10.551 3
    endloop
  endfacet
  facet normal 0 0 1
    outer loop
      vertex 27.8561 11.5576 3
      vertex 12.1439 11.5576 3
      vertex 12.4209 11.0779 3
    endloop
  endfacet
  facet normal 0 0 1
    outer loop
      vertex 28.2268 11.9693 3
      vertex 11.7732 11.9693 3
      vertex 12.1439 11.5576 3
    endloop
  endfacet
  facet normal 0 0 1
    outer loop
      vertex 28.675 12.295 3
      vertex 11.325 12.295 3
      vertex 11.7732 11.9693 3
    endloop
  endfacet
  facet normal 0 0 1
    outer loop
      vertex 28.675 12.295 3
      vertex 10.8189 12.5203 3
      vertex 11.325 12.295 3
    endloop
  endfacet
  facet normal -0 0 1
    outer loop
      vertex 0 20 3
      vertex 10.8189 12.5203 3
      vertex 40 20 3
    endloop
  endfacet
  facet normal 0 0 1
    outer loop
      vertex 10.8189 12.5203 3
      vertex 0 20 3
      vertex 10.277 12.6355 3
    endloop
  endfacet
  facet normal 0 0 1
    outer loop
      vertex 10.277 12.6355 3
      vertex 0 20 3
      vertex 9.723 12.6355 3
    endloop
  endfacet
  facet normal 0 0 1
    outer loop
      vertex 7.40791 10.551 3
      vertex 0 20 3
      vertex 7.35 10 3
    endloop
  endfacet
  facet normal 0 0 1
    outer loop
      vertex 7.5791 11.0779 3
      vertex 0 20 3
      vertex 7.40791 10.551 3
    endloop
  endfacet
  facet normal 0 0 1
    outer loop
      vertex 7.8561 11.5576 3
      vertex 0 20 3
      vertex 7.5791 11.0779 3
    endloop
  endfacet
  facet normal 0 0 1
    outer loop
      vertex 8.2268 11.9693 3
      vertex 0 20 3
      vertex 7.8561 11.5576 3
    endloop
  endfacet
  facet normal 0 0 1
    outer loop
      vertex 8.675 12.295 3
      vertex 0 20 3
      vertex 8.2268 11.9693 3
    endloop
  endfacet
  facet normal 0 0 1
    outer loop
      vertex 9.1811 12.5203 3
      vertex 0 20 3
      vertex 8.675 12.295 3
    endloop
  endfacet
  facet normal 0 0 1
    outer loop
      vertex 9.723 12.6355 3
      vertex 0 20 3
      vertex 9.1811 12.5203 3
    endloop
  endfacet
  facet normal -0 0 1
    outer loop
      vertex 32.5921 9.44903 3
      vertex 40 0 3
      vertex 32.65 10 3
    endloop
  endfacet
  facet normal -0 0 1
    outer loop
      vertex 32.4209 8.92215 3
      vertex 40 0 3
      vertex 32.5921 9.44903 3
    endloop
  endfacet
  facet normal -0 0 1
    outer loop
      vertex 32.1439 8.44237 3
      vertex 40 0 3
      vertex 32.4209 8.92215 3
    endloop
  endfacet
  facet normal -0 0 1
    outer loop
      vertex 31.7732 8.03067 3
      vertex 40 0 3
      vertex 32.1439 8.44237 3
    endloop
  endfacet
  facet normal -0 0 1
    outer loop
      vertex 31.325 7.70503 3
      vertex 40 0 3
      vertex 31.7732 8.03067 3
    endloop
  endfacet
  facet normal -0 0 1
    outer loop
      vertex 30.8189 7.4797 3
      vertex 40 0 3
      vertex 31.325 7.70503 3
    endloop
  endfacet
  facet normal -0 0 1
    outer loop
      vertex 30.277 7.36452 3
      vertex 40 0 3
      vertex 30.8189 7.4797 3
    endloop
  endfacet
  facet normal -0 0 1
    outer loop
      vertex 29.723 7.36452 3
      vertex 40 0 3
      vertex 30.277 7.36452 3
    endloop
  endfacet
  facet normal 0 0 1
    outer loop
      vertex 29.1811 7.4797 3
      vertex 40 0 3
      vertex 29.723 7.36452 3
    endloop
  endfacet
  facet normal 0 0 1
    outer loop
      vertex 10.8189 7.4797 3
      vertex 29.1811 7.4797 3
      vertex 28.675 7.70503 3
    endloop
  endfacet
  facet normal -0 0 1
    outer loop
      vertex 12.65 10 3
      vertex 27.4079 9.44903 3
      vertex 27.35 10 3
    endloop
  endfacet
  facet normal 0 0 1
    outer loop
      vertex 12.5921 9.44903 3
      vertex 27.4079 9.44903 3
      vertex 12.65 10 3
    endloop
  endfacet
  facet normal 0 0 1
    outer loop
      vertex 27.4079 9.44903 3
      vertex 12.5921 9.44903 3
      vertex 27.5791 8.92215 3
    endloop
  endfacet
  facet normal 0 0 1
    outer loop
      vertex 12.4209 8.92215 3
      vertex 27.5791 8.92215 3
      vertex 12.5921 9.44903 3
    endloop
  endfacet
  facet normal 0 0 1
    outer loop
      vertex 27.5791 8.92215 3
      vertex 12.4209 8.92215 3
      vertex 27.8561 8.44237 3
    endloop
  endfacet
  facet normal 0 0 1
    outer loop
      vertex 12.1439 8.44237 3
      vertex 27.8561 8.44237 3
      vertex 12.4209 8.92215 3
    endloop
  endfacet
  facet normal 0 0 1
    outer loop
      vertex 27.8561 8.44237 3
      vertex 12.1439 8.44237 3
      vertex 28.2268 8.03067 3
    endloop
  endfacet
  facet normal 0 0 1
    outer loop
      vertex 11.7732 8.03067 3
      vertex 28.2268 8.03067 3
      vertex 12.1439 8.44237 3
    endloop
  endfacet
  facet normal 0 0 1
    outer loop
      vertex 28.2268 8.03067 3
      vertex 11.7732 8.03067 3
      vertex 28.675 7.70503 3
    endloop
  endfacet
  facet normal 0 0 1
    outer loop
      vertex 11.325 7.70503 3
      vertex 28.675 7.70503 3
      vertex 11.7732 8.03067 3
    endloop
  endfacet
  facet normal 0 0 1
    outer loop
      vertex 10.8189 7.4797 3
      vertex 28.675 7.70503 3
      vertex 11.325 7.70503 3
    endloop
  endfacet
  facet normal 0 0 1
    outer loop
      vertex 29.1811 7.4797 3
      vertex 10.8189 7.4797 3
      vertex 40 0 3
    endloop
  endfacet
  facet normal 0 0 1
    outer loop
      vertex 0 0 3
      vertex 10.8189 7.4797 3
      vertex 10.277 7.36452 3
    endloop
  endfacet
  facet normal 0 0 1
    outer loop
      vertex 0 0 3
      vertex 10.277 7.36452 3
      vertex 9.723 7.36452 3
    endloop
  endfacet
  facet normal 0 0 1
    outer loop
      vertex 0 0 3
      vertex 9.723 7.36452 3
      vertex 9.1811 7.4797 3
    endloop
  endfacet
  facet normal 0 0 1
    outer loop
      vertex 0 0 3
      vertex 7.35 10 3
      vertex 0 20 3
    endloop
  endfacet
  facet normal 0 0 1
    outer loop
      vertex 7.35 10 3
      vertex 0 0 3
      vertex 7.40791 9.44903 3
    endloop
  endfacet
  facet normal 0 0 1
    outer loop
      vertex 7.40791 9.44903 3
      vertex 0 0 3
      vertex 7.5791 8.92215 3
    endloop
  endfacet
  facet normal 0 0 1
    outer loop
      vertex 10.8189 7.4797 3
      vertex 0 0 3
      vertex 40 0 3
    endloop
  endfacet
  facet normal 0 0 1
    outer loop
      vertex 8.675 7.70503 3
      vertex 0 0 3
      vertex 9.1811 7.4797 3
    endloop
  endfacet
  facet normal 0 0 1
    outer loop
      vertex 8.2268 8.03067 3
      vertex 0 0 3
      vertex 8.675 7.70503 3
    endloop
  endfacet
  facet normal 0 0 1
    outer loop
      vertex 7.8561 8.44237 3
      vertex 0 0 3
      vertex 8.2268 8.03067 3
    endloop
  endfacet
  facet normal 0 0 1
    outer loop
      vertex 7.5791 8.92215 3
      vertex 0 0 3
      vertex 7.8561 8.44237 3
    endloop
  endfacet
  facet normal 0 0 -1
    outer loop
      vertex 40 0 0
      vertex 32.65 10 0
      vertex 40 20 0
    endloop
  endfacet
  facet normal 0 0 -1
    outer loop
      vertex 40 0 0
      vertex 32.5921 9.44903 0
      vertex 32.65 10 0
    endloop
  endfacet
  facet normal 0 0 -1
    outer loop
      vertex 40 0 0
      vertex 32.4209 8.92215 0
      vertex 32.5921 9.44903 0
    endloop
  endfacet
  facet normal 0 0 -1
    outer loop
      vertex 40 0 0
      vertex 32.1439 8.44237 0
      vertex 32.4209 8.92215 0
    endloop
  endfacet
  facet normal 0 0 -1
    outer loop
      vertex 40 0 0
      vertex 31.7732 8.03067 0
      vertex 32.1439 8.44237 0
    endloop
  endfacet
  facet normal 0 0 -1
    outer loop
      vertex 40 0 0
      vertex 31.325 7.70503 0
      vertex 31.7732 8.03067 0
    endloop
  endfacet
  facet normal 0 0 -1
    outer loop
      vertex 40 0 0
      vertex 30.8189 7.4797 0
      vertex 31.325 7.70503 0
    endloop
  endfacet
  facet normal 0 0 -1
    outer loop
      vertex 40 0 0
      vertex 30.277 7.36452 0
      vertex 30.8189 7.4797 0
    endloop
  endfacet
  facet normal 0 0 -1
    outer loop
      vertex 40 0 0
      vertex 29.723 7.36452 0
      vertex 30.277 7.36452 0
    endloop
  endfacet
  facet normal 0 0 -1
    outer loop
      vertex 40 0 0
      vertex 29.1811 7.4797 0
      vertex 29.723 7.36452 0
    endloop
  endfacet
  facet normal 0 0 -1
    outer loop
      vertex 10.8189 7.4797 0
      vertex 29.1811 7.4797 0
      vertex 40 0 0
    endloop
  endfacet
  facet normal 0 0 -1
    outer loop
      vertex 27.4079 9.44903 0
      vertex 12.65 10 0
      vertex 27.35 10 0
    endloop
  endfacet
  facet normal 0 0 -1
    outer loop
      vertex 12.5921 9.44903 0
      vertex 27.4079 9.44903 0
      vertex 27.5791 8.92215 0
    endloop
  endfacet
  facet normal 0 0 -1
    outer loop
      vertex 12.4209 8.92215 0
      vertex 27.5791 8.92215 0
      vertex 27.8561 8.44237 0
    endloop
  endfacet
  facet normal 0 0 -1
    outer loop
      vertex 12.1439 8.44237 0
      vertex 27.8561 8.44237 0
      vertex 28.2268 8.03067 0
    endloop
  endfacet
  facet normal 0 0 -1
    outer loop
      vertex 11.7732 8.03067 0
      vertex 28.2268 8.03067 0
      vertex 28.675 7.70503 0
    endloop
  endfacet
  facet normal 0 0 -1
    outer loop
      vertex 29.1811 7.4797 0
      vertex 10.8189 7.4797 0
      vertex 28.675 7.70503 0
    endloop
  endfacet
  facet normal 0 0 -1
    outer loop
      vertex 27.4079 9.44903 0
      vertex 12.5921 9.44903 0
      vertex 12.65 10 0
    endloop
  endfacet
  facet normal 0 0 -1
    outer loop
      vertex 27.5791 8.92215 0
      vertex 12.4209 8.92215 0
      vertex 12.5921 9.44903 0
    endloop
  endfacet
  facet normal 0 0 -1
    outer loop
      vertex 27.8561 8.44237 0
      vertex 12.1439 8.44237 0
      vertex 12.4209 8.92215 0
    endloop
  endfacet
  facet normal 0 0 -1
    outer loop
      vertex 28.2268 8.03067 0
      vertex 11.7732 8.03067 0
      vertex 12.1439 8.44237 0
    endloop
  endfacet
  facet normal 0 0 -1
    outer loop
      vertex 28.675 7.70503 0
      vertex 11.325 7.70503 0
      vertex 11.7732 8.03067 0
    endloop
  endfacet
  facet normal -0 0 -1
    outer loop
      vertex 28.675 7.70503 0
      vertex 10.8189 7.4797 0
      vertex 11.325 7.70503 0
    endloop
  endfacet
  facet normal 0 0 -1
    outer loop
      vertex 0 0 0
      vertex 10.8189 7.4797 0
      vertex 40 0 0
    endloop
  endfacet
  facet normal 0 0 -1
    outer loop
      vertex 10.8189 7.4797 0
      vertex 0 0 0
      vertex 10.277 7.36452 0
    endloop
  endfacet
  facet normal -0 0 -1
    outer loop
      vertex 10.277 7.36452 0
      vertex 0 0 0
      vertex 9.723 7.36452 0
    endloop
  endfacet
  facet normal -0 0 -1
    outer loop
      vertex 7.40791 9.44903 0
      vertex 0 0 0
      vertex 7.35 10 0
    endloop
  endfacet
  facet normal -0 0 -1
    outer loop
      vertex 7.5791 8.92215 0
      vertex 0 0 0
      vertex 7.40791 9.44903 0
    endloop
  endfacet
  facet normal -0 0 -1
    outer loop
      vertex 7.8561 8.44237 0
      vertex 0 0 0
      vertex 7.5791 8.92215 0
    endloop
  endfacet
  facet normal -0 0 -1
    outer loop
      vertex 8.2268 8.03067 0
      vertex 0 0 0
      vertex 7.8561 8.44237 0
    endloop
  endfacet
  facet normal -0 0 -1
    outer loop
      vertex 8.675 7.70503 0
      vertex 0 0 0
      vertex 8.2268 8.03067 0
    endloop
  endfacet
  facet normal -0 0 -1
    outer loop
      vertex 9.1811 7.4797 0
      vertex 0 0 0
      vertex 8.675 7.70503 0
    endloop
  endfacet
  facet normal -0 0 -1
    outer loop
      vertex 9.723 7.36452 0
      vertex 0 0 0
      vertex 9.1811 7.4797 0
    endloop
  endfacet
  facet normal 0 0 -1
    outer loop
      vertex 32.5921 10.551 0
      vertex 40 20 0
      vertex 32.65 10 0
    endloop
  endfacet
  facet normal 0 0 -1
    outer loop
      vertex 32.4209 11.0779 0
      vertex 40 20 0
      vertex 32.5921 10.551 0
    endloop
  endfacet
  facet normal 0 0 -1
    outer loop
      vertex 32.1439 11.5576 0
      vertex 40 20 0
      vertex 32.4209 11.0779 0
    endloop
  endfacet
  facet normal 0 0 -1
    outer loop
      vertex 31.7732 11.9693 0
      vertex 40 20 0
      vertex 32.1439 11.5576 0
    endloop
  endfacet
  facet normal 0 0 -1
    outer loop
      vertex 31.325 12.295 0
      vertex 40 20 0
      vertex 31.7732 11.9693 0
    endloop
  endfacet
  facet normal 0 0 -1
    outer loop
      vertex 30.8189 12.5203 0
      vertex 40 20 0
      vertex 31.325 12.295 0
    endloop
  endfacet
  facet normal 0 0 -1
    outer loop
      vertex 30.277 12.6355 0
      vertex 40 20 0
      vertex 30.8189 12.5203 0
    endloop
  endfacet
  facet normal 0 0 -1
    outer loop
      vertex 29.723 12.6355 0
      vertex 40 20 0
      vertex 30.277 12.6355 0
    endloop
  endfacet
  facet normal 0 0 -1
    outer loop
      vertex 29.1811 12.5203 0
      vertex 40 20 0
      vertex 29.723 12.6355 0
    endloop
  endfacet
  facet normal 0 0 -1
    outer loop
      vertex 10.8189 12.5203 0
      vertex 29.1811 12.5203 0
      vertex 28.675 12.295 0
    endloop
  endfacet
  facet normal 0 0 -1
    outer loop
      vertex 12.65 10 0
      vertex 27.4079 10.551 0
      vertex 27.35 10 0
    endloop
  endfacet
  facet normal 0 0 -1
    outer loop
      vertex 12.5921 10.551 0
      vertex 27.4079 10.551 0
      vertex 12.65 10 0
    endloop
  endfacet
  facet normal 0 0 -1
    outer loop
      vertex 27.4079 10.551 0
      vertex 12.5921 10.551 0
      vertex 27.5791 11.0779 0
    endloop
  endfacet
  facet normal 0 0 -1
    outer loop
      vertex 12.4209 11.0779 0
      vertex 27.5791 11.0779 0
      vertex 12.5921 10.551 0
    endloop
  endfacet
  facet normal 0 0 -1
    outer loop
      vertex 27.5791 11.0779 0
      vertex 12.4209 11.0779 0
      vertex 27.8561 11.5576 0
    endloop
  endfacet
  facet normal 0 0 -1
    outer loop
      vertex 12.1439 11.5576 0
      vertex 27.8561 11.5576 0
      vertex 12.4209 11.0779 0
    endloop
  endfacet
  facet normal 0 0 -1
    outer loop
      vertex 27.8561 11.5576 0
      vertex 12.1439 11.5576 0
      vertex 28.2268 11.9693 0
    endloop
  endfacet
  facet normal 0 0 -1
    outer loop
      vertex 11.7732 11.9693 0
      vertex 28.2268 11.9693 0
      vertex 12.1439 11.5576 0
    endloop
  endfacet
  facet normal 0 0 -1
    outer loop
      vertex 28.2268 11.9693 0
      vertex 11.7732 11.9693 0
      vertex 28.675 12.295 0
    endloop
  endfacet
  facet normal 0 0 -1
    outer loop
      vertex 11.325 12.295 0
      vertex 28.675 12.295 0
      vertex 11.7732 11.9693 0
    endloop
  endfacet
  facet normal 0 0 -1
    outer loop
      vertex 10.8189 12.5203 0
      vertex 28.675 12.295 0
      vertex 11.325 12.295 0
    endloop
  endfacet
  facet normal 0 0 -1
    outer loop
      vertex 29.1811 12.5203 0
      vertex 10.8189 12.5203 0
      vertex 40 20 0
    endloop
  endfacet
  facet normal 0 0 -1
    outer loop
      vertex 0 20 0
      vertex 10.8189 12.5203 0
      vertex 10.277 12.6355 0
    endloop
  endfacet
  facet normal 0 0 -1
    outer loop
      vertex 0 20 0
      vertex 10.277 12.6355 0
      vertex 9.723 12.6355 0
    endloop
  endfacet
  facet normal 0 0 -1
    outer loop
      vertex 0 20 0
      vertex 9.723 12.6355 0
      vertex 9.1811 12.5203 0
    endloop
  endfacet
  facet normal 0 0 -1
    outer loop
      vertex 0 20 0
      vertex 7.35 10 0
      vertex 0 0 0
    endloop
  endfacet
  facet normal 0 0 -1
    outer loop
      vertex 7.35 10 0
      vertex 0 20 0
      vertex 7.40791 10.551 0
    endloop
  endfacet
  facet normal 0 0 -1
    outer loop
      vertex 7.40791 10.551 0
      vertex 0 20 0
      vertex 7.5791 11.0779 0
    endloop
  endfacet
  facet normal 0 0 -1
    outer loop
      vertex 10.8189 12.5203 0
      vertex 0 20 0
      vertex 40 20 0
    endloop
  endfacet
  facet normal 0 0 -1
    outer loop
      vertex 8.675 12.295 0
      vertex 0 20 0
      vertex 9.1811 12.5203 0
    endloop
  endfacet
  facet normal 0 0 -1
    outer loop
      vertex 8.2268 11.9693 0
      vertex 0 20 0
      vertex 8.675 12.295 0
    endloop
  endfacet
  facet normal 0 0 -1
    outer loop
      vertex 7.8561 11.5576 0
      vertex 0 20 0
      vertex 8.2268 11.9693 0
    endloop
  endfacet
  facet normal 0 0 -1
    outer loop
      vertex 7.5791 11.0779 0
      vertex 0 20 0
      vertex 7.8561 11.5576 0
    endloop
  endfacet
  facet normal -1 0 0
    outer loop
      vertex 0 0 0
      vertex 0 20 3
      vertex 0 20 0
    endloop
  endfacet
  facet normal -1 -0 0
    outer loop
      vertex 0 20 3
      vertex 0 0 0
      vertex 0 0 3
    endloop
  endfacet
  facet normal 0 1 -0
    outer loop
      vertex 40 20 0
      vertex 0 20 3
      vertex 40 20 3
    endloop
  endfacet
  facet normal 0 1 0
    outer loop
      vertex 0 20 3
      vertex 40 20 0
      vertex 0 20 0
    endloop
  endfacet
  facet normal 0 -1 0
    outer loop
      vertex 0 0 0
      vertex 40 0 3
      vertex 0 0 3
    endloop
  endfacet
  facet normal 0 -1 -0
    outer loop
      vertex 40 0 3
      vertex 0 0 0
      vertex 40 0 0
    endloop
  endfacet
  facet normal 0 -1 0
    outer loop
      vertex 9.723 12.6355 0
      vertex 10.277 12.6355 3
      vertex 9.723 12.6355 3
    endloop
  endfacet
  facet normal 0 -1 -0
    outer loop
      vertex 10.277 12.6355 3
      vertex 9.723 12.6355 0
      vertex 10.277 12.6355 0
    endloop
  endfacet
  facet normal -0.994524 0.104512 0
    outer loop
      vertex 12.5921 9.44903 0
      vertex 12.65 10 3
      vertex 12.65 10 0
    endloop
  endfacet
  facet normal -0.994524 0.104512 0
    outer loop
      vertex 12.65 10 3
      vertex 12.5921 9.44903 0
      vertex 12.5921 9.44903 3
    endloop
  endfacet
  facet normal -0.951057 -0.309017 0
    outer loop
      vertex 12.5921 10.551 0
      vertex 12.4209 11.0779 3
      vertex 12.4209 11.0779 0
    endloop
  endfacet
  facet normal -0.951057 -0.309017 0
    outer loop
      vertex 12.4209 11.0779 3
      vertex 12.5921 10.551 0
      vertex 12.5921 10.551 3
    endloop
  endfacet
  facet normal -0.994524 -0.104506 0
    outer loop
      vertex 12.65 10 0
      vertex 12.5921 10.551 3
      vertex 12.5921 10.551 0
    endloop
  endfacet
  facet normal -0.994524 -0.104506 0
    outer loop
      vertex 12.5921 10.551 3
      vertex 12.65 10 0
      vertex 12.65 10 3
    endloop
  endfacet
  facet normal -0.86599 -0.500061 0
    outer loop
      vertex 12.4209 11.0779 0
      vertex 12.1439 11.5576 3
      vertex 12.1439 11.5576 0
    endloop
  endfacet
  facet normal -0.86599 -0.500061 0
    outer loop
      vertex 12.1439 11.5576 3
      vertex 12.4209 11.0779 0
      vertex 12.4209 11.0779 3
    endloop
  endfacet
  facet normal -0.406736 0.913546 0
    outer loop
      vertex 11.325 7.70503 0
      vertex 10.8189 7.4797 3
      vertex 11.325 7.70503 3
    endloop
  endfacet
  facet normal -0.406736 0.913546 0
    outer loop
      vertex 10.8189 7.4797 3
      vertex 11.325 7.70503 0
      vertex 10.8189 7.4797 0
    endloop
  endfacet
  facet normal 0.743142 -0.669134 0
    outer loop
      vertex 7.8561 11.5576 3
      vertex 8.2268 11.9693 0
      vertex 8.2268 11.9693 3
    endloop
  endfacet
  facet normal 0.743142 -0.669134 0
    outer loop
      vertex 8.2268 11.9693 0
      vertex 7.8561 11.5576 3
      vertex 7.8561 11.5576 0
    endloop
  endfacet
  facet normal -0.743142 -0.669134 0
    outer loop
      vertex 12.1439 11.5576 0
      vertex 11.7732 11.9693 3
      vertex 11.7732 11.9693 0
    endloop
  endfacet
  facet normal -0.743142 -0.669134 0
    outer loop
      vertex 11.7732 11.9693 3
      vertex 12.1439 11.5576 0
      vertex 12.1439 11.5576 3
    endloop
  endfacet
  facet normal 0 1 -0
    outer loop
      vertex 10.277 7.36452 0
      vertex 9.723 7.36452 3
      vertex 10.277 7.36452 3
    endloop
  endfacet
  facet normal 0 1 0
    outer loop
      vertex 9.723 7.36452 3
      vertex 10.277 7.36452 0
      vertex 9.723 7.36452 0
    endloop
  endfacet
  facet normal 0.406691 -0.913566 0
    outer loop
      vertex 8.675 12.295 0
      vertex 9.1811 12.5203 3
      vertex 8.675 12.295 3
    endloop
  endfacet
  facet normal 0.406691 -0.913566 0
    outer loop
      vertex 9.1811 12.5203 3
      vertex 8.675 12.295 0
      vertex 9.1811 12.5203 0
    endloop
  endfacet
  facet normal -0.58786 -0.808962 0
    outer loop
      vertex 11.325 12.295 0
      vertex 11.7732 11.9693 3
      vertex 11.325 12.295 3
    endloop
  endfacet
  facet normal -0.58786 -0.808962 -0
    outer loop
      vertex 11.7732 11.9693 3
      vertex 11.325 12.295 0
      vertex 11.7732 11.9693 0
    endloop
  endfacet
  facet normal 0.994522 -0.104524 0
    outer loop
      vertex 7.35 10 3
      vertex 7.40791 10.551 0
      vertex 7.40791 10.551 3
    endloop
  endfacet
  facet normal 0.994522 -0.104524 0
    outer loop
      vertex 7.40791 10.551 0
      vertex 7.35 10 3
      vertex 7.35 10 0
    endloop
  endfacet
  facet normal 0.743142 0.669134 0
    outer loop
      vertex 8.2268 8.03067 3
      vertex 7.8561 8.44237 0
      vertex 7.8561 8.44237 3
    endloop
  endfacet
  facet normal 0.743142 0.669134 0
    outer loop
      vertex 7.8561 8.44237 0
      vertex 8.2268 8.03067 3
      vertex 8.2268 8.03067 0
    endloop
  endfacet
  facet normal -0.743142 0.669134 0
    outer loop
      vertex 11.7732 8.03067 0
      vertex 12.1439 8.44237 3
      vertex 12.1439 8.44237 0
    endloop
  endfacet
  facet normal -0.743142 0.669134 0
    outer loop
      vertex 12.1439 8.44237 3
      vertex 11.7732 8.03067 0
      vertex 11.7732 8.03067 3
    endloop
  endfacet
  facet normal 0.58779 0.809014 -0
    outer loop
      vertex 8.675 7.70503 0
      vertex 8.2268 8.03067 3
      vertex 8.675 7.70503 3
    endloop
  endfacet
  facet normal 0.58779 0.809014 0
    outer loop
      vertex 8.2268 8.03067 3
      vertex 8.675 7.70503 0
      vertex 8.2268 8.03067 0
    endloop
  endfacet
  facet normal -0.58779 0.809014 0
    outer loop
      vertex 11.7732 8.03067 0
      vertex 11.325 7.70503 3
      vertex 11.7732 8.03067 3
    endloop
  endfacet
  facet normal -0.58779 0.809014 0
    outer loop
      vertex 11.325 7.70503 3
      vertex 11.7732 8.03067 0
      vertex 11.325 7.70503 0
    endloop
  endfacet
  facet normal -0.207904 0.978149 0
    outer loop
      vertex 10.8189 7.4797 0
      vertex 10.277 7.36452 3
      vertex 10.8189 7.4797 3
    endloop
  endfacet
  facet normal -0.207904 0.978149 0
    outer loop
      vertex 10.277 7.36452 3
      vertex 10.8189 7.4797 0
      vertex 10.277 7.36452 0
    endloop
  endfacet
  facet normal -0.866026 0.499998 0
    outer loop
      vertex 12.1439 8.44237 0
      vertex 12.4209 8.92215 3
      vertex 12.4209 8.92215 0
    endloop
  endfacet
  facet normal -0.866026 0.499998 0
    outer loop
      vertex 12.4209 8.92215 3
      vertex 12.1439 8.44237 0
      vertex 12.1439 8.44237 3
    endloop
  endfacet
  facet normal 0.207904 0.978149 -0
    outer loop
      vertex 9.723 7.36452 0
      vertex 9.1811 7.4797 3
      vertex 9.723 7.36452 3
    endloop
  endfacet
  facet normal 0.207904 0.978149 0
    outer loop
      vertex 9.1811 7.4797 3
      vertex 9.723 7.36452 0
      vertex 9.1811 7.4797 0
    endloop
  endfacet
  facet normal 0.86599 -0.500061 0
    outer loop
      vertex 7.5791 11.0779 3
      vertex 7.8561 11.5576 0
      vertex 7.8561 11.5576 3
    endloop
  endfacet
  facet normal 0.86599 -0.500061 0
    outer loop
      vertex 7.8561 11.5576 0
      vertex 7.5791 11.0779 3
      vertex 7.5791 11.0779 0
    endloop
  endfacet
  facet normal 0.58786 -0.808962 0
    outer loop
      vertex 8.2268 11.9693 0
      vertex 8.675 12.295 3
      vertex 8.2268 11.9693 3
    endloop
  endfacet
  facet normal 0.58786 -0.808962 0
    outer loop
      vertex 8.675 12.295 3
      vertex 8.2268 11.9693 0
      vertex 8.675 12.295 0
    endloop
  endfacet
  facet normal -0.406691 -0.913566 0
    outer loop
      vertex 10.8189 12.5203 0
      vertex 11.325 12.295 3
      vertex 10.8189 12.5203 3
    endloop
  endfacet
  facet normal -0.406691 -0.913566 -0
    outer loop
      vertex 11.325 12.295 3
      vertex 10.8189 12.5203 0
      vertex 11.325 12.295 0
    endloop
  endfacet
  facet normal -0.951053 0.309027 0
    outer loop
      vertex 12.4209 8.92215 0
      vertex 12.5921 9.44903 3
      vertex 12.5921 9.44903 0
    endloop
  endfacet
  facet normal -0.951053 0.309027 0
    outer loop
      vertex 12.5921 9.44903 3
      vertex 12.4209 8.92215 0
      vertex 12.4209 8.92215 3
    endloop
  endfacet
  facet normal -0.207939 -0.978142 0
    outer loop
      vertex 10.277 12.6355 0
      vertex 10.8189 12.5203 3
      vertex 10.277 12.6355 3
    endloop
  endfacet
  facet normal -0.207939 -0.978142 -0
    outer loop
      vertex 10.8189 12.5203 3
      vertex 10.277 12.6355 0
      vertex 10.8189 12.5203 0
    endloop
  endfacet
  facet normal 0.406736 0.913546 -0
    outer loop
      vertex 9.1811 7.4797 0
      vertex 8.675 7.70503 3
      vertex 9.1811 7.4797 3
    endloop
  endfacet
  facet normal 0.406736 0.913546 0
    outer loop
      vertex 8.675 7.70503 3
      vertex 9.1811 7.4797 0
      vertex 8.675 7.70503 0
    endloop
  endfacet
  facet normal 0.951062 -0.309 0
    outer loop
      vertex 7.40791 10.551 3
      vertex 7.5791 11.0779 0
      vertex 7.5791 11.0779 3
    endloop
  endfacet
  facet normal 0.951062 -0.309 0
    outer loop
      vertex 7.5791 11.0779 0
      vertex 7.40791 10.551 3
      vertex 7.40791 10.551 0
    endloop
  endfacet
  facet normal 0.207939 -0.978142 0
    outer loop
      vertex 9.1811 12.5203 0
      vertex 9.723 12.6355 3
      vertex 9.1811 12.5203 3
    endloop
  endfacet
  facet normal 0.207939 -0.978142 0
    outer loop
      vertex 9.723 12.6355 3
      vertex 9.1811 12.5203 0
      vertex 9.723 12.6355 0
    endloop
  endfacet
  facet normal 0.951058 0.309011 0
    outer loop
      vertex 7.5791 8.92215 3
      vertex 7.40791 9.44903 0
      vertex 7.40791 9.44903 3
    endloop
  endfacet
  facet normal 0.951058 0.309011 0
    outer loop
      vertex 7.40791 9.44903 0
      vertex 7.5791 8.92215 3
      vertex 7.5791 8.92215 0
    endloop
  endfacet
  facet normal 0.866026 0.499998 0
    outer loop
      vertex 7.8561 8.44237 3
      vertex 7.5791 8.92215 0
      vertex 7.5791 8.92215 3
    endloop
  endfacet
  facet normal 0.866026 0.499998 0
    outer loop
      vertex 7.5791 8.92215 0
      vertex 7.8561 8.44237 3
      vertex 7.8561 8.44237 0
    endloop
  endfacet
  facet normal 0.994522 0.10453 0
    outer loop
      vertex 7.40791 9.44903 3
      vertex 7.35 10 0
      vertex 7.35 10 3
    endloop
  endfacet
  facet normal 0.994522 0.10453 0
    outer loop
      vertex 7.35 10 0
      vertex 7.40791 9.44903 3
      vertex 7.40791 9.44903 0
    endloop
  endfacet
  facet normal 0 -1 0
    outer loop
      vertex 29.723 12.6355 0
      vertex 30.277 12.6355 3
      vertex 29.723 12.6355 3
    endloop
  endfacet
  facet normal 0 -1 -0
    outer loop
      vertex 30.277 12.6355 3
      vertex 29.723 12.6355 0
      vertex 30.277 12.6355 0
    endloop
  endfacet
  facet normal -0.994524 0.104512 0
    outer loop
      vertex 32.5921 9.44903 0
      vertex 32.65 10 3
      vertex 32.65 10 0
    endloop
  endfacet
  facet normal -0.994524 0.104512 0
    outer loop
      vertex 32.65 10 3
      vertex 32.5921 9.44903 0
      vertex 32.5921 9.44903 3
    endloop
  endfacet
  facet normal -0.951057 -0.309017 0
    outer loop
      vertex 32.5921 10.551 0
      vertex 32.4209 11.0779 3
      vertex 32.4209 11.0779 0
    endloop
  endfacet
  facet normal -0.951057 -0.309017 0
    outer loop
      vertex 32.4209 11.0779 3
      vertex 32.5921 10.551 0
      vertex 32.5921 10.551 3
    endloop
  endfacet
  facet normal -0.994524 -0.104506 0
    outer loop
      vertex 32.65 10 0
      vertex 32.5921 10.551 3
      vertex 32.5921 10.551 0
    endloop
  endfacet
  facet normal -0.994524 -0.104506 0
    outer loop
      vertex 32.5921 10.551 3
      vertex 32.65 10 0
      vertex 32.65 10 3
    endloop
  endfacet
  facet normal -0.86599 -0.500061 0
    outer loop
      vertex 32.4209 11.0779 0
      vertex 32.1439 11.5576 3
      vertex 32.1439 11.5576 0
    endloop
  endfacet
  facet normal -0.86599 -0.500061 0
    outer loop
      vertex 32.1439 11.5576 3
      vertex 32.4209 11.0779 0
      vertex 32.4209 11.0779 3
    endloop
  endfacet
  facet normal -0.406736 0.913546 0
    outer loop
      vertex 31.325 7.70503 0
      vertex 30.8189 7.4797 3
      vertex 31.325 7.70503 3
    endloop
  endfacet
  facet normal -0.406736 0.913546 0
    outer loop
      vertex 30.8189 7.4797 3
      vertex 31.325 7.70503 0
      vertex 30.8189 7.4797 0
    endloop
  endfacet
  facet normal 0.743142 -0.669134 0
    outer loop
      vertex 27.8561 11.5576 3
      vertex 28.2268 11.9693 0
      vertex 28.2268 11.9693 3
    endloop
  endfacet
  facet normal 0.743142 -0.669134 0
    outer loop
      vertex 28.2268 11.9693 0
      vertex 27.8561 11.5576 3
      vertex 27.8561 11.5576 0
    endloop
  endfacet
  facet normal -0.743142 -0.669134 0
    outer loop
      vertex 32.1439 11.5576 0
      vertex 31.7732 11.9693 3
      vertex 31.7732 11.9693 0
    endloop
  endfacet
  facet normal -0.743142 -0.669134 0
    outer loop
      vertex 31.7732 11.9693 3
      vertex 32.1439 11.5576 0
      vertex 32.1439 11.5576 3
    endloop
  endfacet
  facet normal 0 1 -0
    outer loop
      vertex 30.277 7.36452 0
      vertex 29.723 7.36452 3
      vertex 30.277 7.36452 3
    endloop
  endfacet
  facet normal 0 1 0
    outer loop
      vertex 29.723 7.36452 3
      vertex 30.277 7.36452 0
      vertex 29.723 7.36452 0
    endloop
  endfacet
  facet normal 0.406691 -0.913566 0
    outer loop
      vertex 28.675 12.295 0
      vertex 29.1811 12.5203 3
      vertex 28.675 12.295 3
    endloop
  endfacet
  facet normal 0.406691 -0.913566 0
    outer loop
      vertex 29.1811 12.5203 3
      vertex 28.675 12.295 0
      vertex 29.1811 12.5203 0
    endloop
  endfacet
  facet normal -0.58786 -0.808962 0
    outer loop
      vertex 31.325 12.295 0
      vertex 31.7732 11.9693 3
      vertex 31.325 12.295 3
    endloop
  endfacet
  facet normal -0.58786 -0.808962 -0
    outer loop
      vertex 31.7732 11.9693 3
      vertex 31.325 12.295 0
      vertex 31.7732 11.9693 0
    endloop
  endfacet
  facet normal 0.994524 -0.104506 0
    outer loop
      vertex 27.35 10 3
      vertex 27.4079 10.551 0
      vertex 27.4079 10.551 3
    endloop
  endfacet
  facet normal 0.994524 -0.104506 0
    outer loop
      vertex 27.4079 10.551 0
      vertex 27.35 10 3
      vertex 27.35 10 0
    endloop
  endfacet
  facet normal 0.743142 0.669134 0
    outer loop
      vertex 28.2268 8.03067 3
      vertex 27.8561 8.44237 0
      vertex 27.8561 8.44237 3
    endloop
  endfacet
  facet normal 0.743142 0.669134 0
    outer loop
      vertex 27.8561 8.44237 0
      vertex 28.2268 8.03067 3
      vertex 28.2268 8.03067 0
    endloop
  endfacet
  facet normal -0.743142 0.669134 0
    outer loop
      vertex 31.7732 8.03067 0
      vertex 32.1439 8.44237 3
      vertex 32.1439 8.44237 0
    endloop
  endfacet
  facet normal -0.743142 0.669134 0
    outer loop
      vertex 32.1439 8.44237 3
      vertex 31.7732 8.03067 0
      vertex 31.7732 8.03067 3
    endloop
  endfacet
  facet normal 0.58779 0.809014 -0
    outer loop
      vertex 28.675 7.70503 0
      vertex 28.2268 8.03067 3
      vertex 28.675 7.70503 3
    endloop
  endfacet
  facet normal 0.58779 0.809014 0
    outer loop
      vertex 28.2268 8.03067 3
      vertex 28.675 7.70503 0
      vertex 28.2268 8.03067 0
    endloop
  endfacet
  facet normal -0.58779 0.809014 0
    outer loop
      vertex 31.7732 8.03067 0
      vertex 31.325 7.70503 3
      vertex 31.7732 8.03067 3
    endloop
  endfacet
  facet normal -0.58779 0.809014 0
    outer loop
      vertex 31.325 7.70503 3
      vertex 31.7732 8.03067 0
      vertex 31.325 7.70503 0
    endloop
  endfacet
  facet normal -0.207904 0.978149 0
    outer loop
      vertex 30.8189 7.4797 0
      vertex 30.277 7.36452 3
      vertex 30.8189 7.4797 3
    endloop
  endfacet
  facet normal -0.207904 0.978149 0
    outer loop
      vertex 30.277 7.36452 3
      vertex 30.8189 7.4797 0
      vertex 30.277 7.36452 0
    endloop
  endfacet
  facet normal -0.866026 0.499998 0
    outer loop
      vertex 32.1439 8.44237 0
      vertex 32.4209 8.92215 3
      vertex 32.4209 8.92215 0
    endloop
  endfacet
  facet normal -0.866026 0.499998 0
    outer loop
      vertex 32.4209 8.92215 3
      vertex 32.1439 8.44237 0
      vertex 32.1439 8.44237 3
    endloop
  endfacet
  facet normal 0.207904 0.978149 -0
    outer loop
      vertex 29.723 7.36452 0
      vertex 29.1811 7.4797 3
      vertex 29.723 7.36452 3
    endloop
  endfacet
  facet normal 0.207904 0.978149 0
    outer loop
      vertex 29.1811 7.4797 3
      vertex 29.723 7.36452 0
      vertex 29.1811 7.4797 0
    endloop
  endfacet
  facet normal 0.86599 -0.500061 0
    outer loop
      vertex 27.5791 11.0779 3
      vertex 27.8561 11.5576 0
      vertex 27.8561 11.5576 3
    endloop
  endfacet
  facet normal 0.86599 -0.500061 0
    outer loop
      vertex 27.8561 11.5576 0
      vertex 27.5791 11.0779 3
      vertex 27.5791 11.0779 0
    endloop
  endfacet
  facet normal 0.58786 -0.808962 0
    outer loop
      vertex 28.2268 11.9693 0
      vertex 28.675 12.295 3
      vertex 28.2268 11.9693 3
    endloop
  endfacet
  facet normal 0.58786 -0.808962 0
    outer loop
      vertex 28.675 12.295 3
      vertex 28.2268 11.9693 0
      vertex 28.675 12.295 0
    endloop
  endfacet
  facet normal -0.406691 -0.913566 0
    outer loop
      vertex 30.8189 12.5203 0
      vertex 31.325 12.295 3
      vertex 30.8189 12.5203 3
    endloop
  endfacet
  facet normal -0.406691 -0.913566 -0
    outer loop
      vertex 31.325 12.295 3
      vertex 30.8189 12.5203 0
      vertex 31.325 12.295 0
    endloop
  endfacet
  facet normal -0.951053 0.309027 0
    outer loop
      vertex 32.4209 8.92215 0
      vertex 32.5921 9.44903 3
      vertex 32.5921 9.44903 0
    endloop
  endfacet
  facet normal -0.951053 0.309027 0
    outer loop
      vertex 32.5921 9.44903 3
      vertex 32.4209 8.92215 0
      vertex 32.4209 8.92215 3
    endloop
  endfacet
  facet normal -0.207939 -0.978142 0
    outer loop
      vertex 30.277 12.6355 0
      vertex 30.8189 12.5203 3
      vertex 30.277 12.6355 3
    endloop
  endfacet
  facet normal -0.207939 -0.978142 -0
    outer loop
      vertex 30.8189 12.5203 3
      vertex 30.277 12.6355 0
      vertex 30.8189 12.5203 0
    endloop
  endfacet
  facet normal 0.406736 0.913546 -0
    outer loop
      vertex 29.1811 7.4797 0
      vertex 28.675 7.70503 3
      vertex 29.1811 7.4797 3
    endloop
  endfacet
  facet normal 0.406736 0.913546 0
    outer loop
      vertex 28.675 7.70503 3
      vertex 29.1811 7.4797 0
      vertex 28.675 7.70503 0
    endloop
  endfacet
  facet normal 0.951057 -0.309017 0
    outer loop
      vertex 27.4079 10.551 3
      vertex 27.5791 11.0779 0
      vertex 27.5791 11.0779 3
    endloop
  endfacet
  facet normal 0.951057 -0.309017 0
    outer loop
      vertex 27.5791 11.0779 0
      vertex 27.4079 10.551 3
      vertex 27.4079 10.551 0
    endloop
  endfacet
  facet normal 0.207939 -0.978142 0
    outer loop
      vertex 29.1811 12.5203 0
      vertex 29.723 12.6355 3
      vertex 29.1811 12.5203 3
    endloop
  endfacet
  facet normal 0.207939 -0.978142 0
    outer loop
      vertex 29.723 12.6355 3
      vertex 29.1811 12.5203 0
      vertex 29.723 12.6355 0
    endloop
  endfacet
  facet normal 0.951053 0.309027 0
    outer loop
      vertex 27.5791 8.92215 3
      vertex 27.4079 9.44903 0
      vertex 27.4079 9.44903 3
    endloop
  endfacet
  facet normal 0.951053 0.309027 0
    outer loop
      vertex 27.4079 9.44903 0
      vertex 27.5791 8.92215 3
      vertex 27.5791 8.92215 0
    endloop
  endfacet
  facet normal 0.866026 0.499998 0
    outer loop
      vertex 27.8561 8.44237 3
      vertex 27.5791 8.92215 0
      vertex 27.5791 8.92215 3
    endloop
  endfacet
  facet normal 0.866026 0.499998 0
    outer loop
      vertex 27.5791 8.92215 0
      vertex 27.8561 8.44237 3
      vertex 27.8561 8.44237 0
    endloop
  endfacet
  facet normal 0.994524 0.104512 0
    outer loop
      vertex 27.4079 9.44903 3
      vertex 27.35 10 0
      vertex 27.35 10 3
    endloop
  endfacet
  facet normal 0.994524 0.104512 0
    outer loop
      vertex 27.35 10 0
      vertex 27.4079 9.44903 3
      vertex 27.4079 9.44903 0
    endloop
  endfacet
endsolid OpenSCAD_Model
